<?xml version="1.0" encoding="UTF-8"?><svg id="uuid-87f6ce21-7295-4c77-a7ea-109bca9c0c3a" xmlns="http://www.w3.org/2000/svg" viewBox="0 0 134 134"><path d="M67,.48l38.4,66.51-18.85,32.65-9.19-15.92,9.66-16.73-20.02-34.67-20.02,34.67,9.66,16.73-9.19,15.92-18.85-32.65L67,.48" style="fill:#30a39d;"/><polygon points="58.03 83.72 66.99 68.17 75.97 83.72 67 99.24 58.03 83.72" style="fill:#30a39d;"/><polygon points="51.53 106.68 58.18 95.13 64.85 106.68 58.19 118.22 51.53 106.68" style="fill:#30a39d;"/><polygon points="69.14 106.68 75.8 95.13 82.46 106.68 75.8 118.22 69.14 106.68" style="fill:#30a39d;"/><polygon points="61.83 124.6 66.97 115.67 72.13 124.6 66.98 133.52 61.83 124.6" style="fill:#30a39d;"/></svg>